<svg width="48" height="48" viewBox="0 0 48 48" fill="none" xmlns="http://www.w3.org/2000/svg">
<g filter="url(#filter0_d_2_3)">
<path d="M38.0089 5.8125C34.2679 2.0625 29.2857 0 23.9911 0C13.0625 0 4.16964 8.89286 4.16964 19.8214C4.16964 23.3125 5.08036 26.7232 6.8125 29.7321L4 40L14.5089 37.2411C17.4018 38.8214 20.6607 39.6518 23.9821 39.6518H23.9911C34.9107 39.6518 44 30.7589 44 19.8304C44 14.5357 41.75 9.5625 38.0089 5.8125ZM23.9911 36.3125C21.0268 36.3125 18.125 35.5179 15.5982 34.0179L15 33.6607L8.76786 35.2946L10.4286 29.2143L10.0357 28.5893C8.38393 25.9643 7.51786 22.9375 7.51786 19.8214C7.51786 10.7411 14.9107 3.34821 24 3.34821C28.4018 3.34821 32.5357 5.0625 35.6429 8.17857C38.75 11.2946 40.6607 15.4286 40.6518 19.8304C40.6518 28.9196 33.0714 36.3125 23.9911 36.3125ZM33.0268 23.9732C32.5357 23.7232 30.0982 22.5268 29.6429 22.3661C29.1875 22.1964 28.8571 22.1161 28.5268 22.6161C28.1964 23.1161 27.25 24.2232 26.9554 24.5625C26.6696 24.8929 26.375 24.9375 25.8839 24.6875C22.9732 23.2321 21.0625 22.0893 19.1429 18.7946C18.6339 17.9196 19.6518 17.9821 20.5982 16.0893C20.7589 15.7589 20.6786 15.4732 20.5536 15.2232C20.4286 14.9732 19.4375 12.5357 19.0268 11.5446C18.625 10.5804 18.2143 10.7143 17.9107 10.6964C17.625 10.6786 17.2946 10.6786 16.9643 10.6786C16.6339 10.6786 16.0982 10.8036 15.6429 11.2946C15.1875 11.7946 13.9107 12.9911 13.9107 15.4286C13.9107 17.8661 15.6875 20.2232 15.9286 20.5536C16.1786 20.8839 19.4196 25.8839 24.3929 28.0357C27.5357 29.3929 28.7679 29.5089 30.3393 29.2768C31.2946 29.1339 33.2679 28.0804 33.6786 26.9196C34.0893 25.7589 34.0893 24.7679 33.9643 24.5625C33.8482 24.3393 33.5179 24.2143 33.0268 23.9732Z" fill="#00FF04"/>
<path d="M23.9912 0.5C29.1533 0.500036 34.0082 2.51027 37.6553 6.16602C41.3116 9.8312 43.4999 14.6803 43.5 19.8301C43.5 30.4762 34.6409 39.1513 23.9912 39.1514H23.9824C20.7444 39.1514 17.5678 38.3425 14.749 36.8027L14.5742 36.707L14.3818 36.7578L4.71094 39.2959L7.29492 29.8643L7.34961 29.6631L7.24609 29.4824C5.55783 26.5497 4.66992 23.2251 4.66992 19.8213C4.67 9.16892 13.3388 0.5 23.9912 0.5ZM24 2.84863C14.6348 2.84863 7.01765 10.4647 7.01758 19.8213C7.01758 22.8301 7.80185 25.7599 9.30273 28.3438L9.6123 28.8555L9.8877 29.2949L8.28516 35.1631L8.05762 35.998L8.89453 35.7783L14.9238 34.1973L15.3418 34.4473L15.3428 34.4482C17.9473 35.9944 20.9377 36.8125 23.9912 36.8125C33.3404 36.8124 41.1514 29.2026 41.1514 19.8301C41.1602 15.2805 39.186 11.0233 35.9971 7.8252C32.796 4.615 28.5345 2.84863 24 2.84863ZM16.9639 11.1787C17.2985 11.1787 17.6129 11.1786 17.8799 11.1953H17.8818C17.9377 11.1986 17.9934 11.1983 18.0303 11.1982C18.0724 11.1982 18.101 11.1987 18.1279 11.2002C18.1766 11.203 18.2008 11.2099 18.2197 11.2188C18.2494 11.2326 18.3862 11.3083 18.5645 11.7354V11.7363C18.7696 12.2314 19.1189 13.0858 19.4346 13.8525C19.7429 14.6016 20.0332 15.3008 20.1064 15.4473C20.1552 15.5449 20.1788 15.6183 20.1855 15.6797C20.1913 15.7328 20.1863 15.7922 20.1484 15.8701C19.7135 16.7384 19.2755 17.1453 18.96 17.4824C18.8137 17.6387 18.6142 17.8565 18.5391 18.1416C18.4529 18.4688 18.5505 18.7701 18.7109 19.0459C19.6965 20.7374 20.6915 21.8956 21.8262 22.8184C22.9536 23.7352 24.2024 24.4049 25.6602 25.1338C25.9407 25.2763 26.2437 25.378 26.5586 25.3389C26.8934 25.2972 27.1415 25.1101 27.333 24.8887C27.6202 24.5579 28.592 23.4248 28.9443 22.8916C29.0033 22.8023 29.0456 22.7648 29.0664 22.75C29.0819 22.739 29.0886 22.7372 29.0957 22.7363C29.1092 22.7347 29.1422 22.7345 29.208 22.75C29.2757 22.7659 29.3576 22.7936 29.4688 22.835L29.4766 22.8379C29.6715 22.9068 30.3621 23.2294 31.1045 23.5869C31.8307 23.9366 32.559 24.2963 32.7998 24.4189L32.8066 24.4219C33.0779 24.5551 33.2482 24.6297 33.3906 24.71C33.4698 24.7545 33.5051 24.7829 33.5186 24.7949C33.5215 24.8099 33.527 24.841 33.5312 24.8936C33.5397 24.9998 33.5405 25.1512 33.5244 25.3398C33.4923 25.7164 33.398 26.2131 33.207 26.7529C33.0591 27.1707 32.5839 27.6483 31.9434 28.0596C31.3933 28.4127 30.8151 28.6568 30.4219 28.751L30.2656 28.7822C29.52 28.8923 28.8768 28.9175 28.0479 28.7607C27.2044 28.6012 26.1503 28.2501 24.5918 27.5771C20.369 25.7501 17.4221 21.7943 16.5645 20.5869L16.3271 20.252C16.1998 20.0779 15.7238 19.4388 15.2754 18.5547C14.8172 17.6512 14.4112 16.5347 14.4111 15.4287C14.4111 13.2042 15.553 12.1335 16.0088 11.6338L16.0098 11.6348C16.3551 11.2624 16.7486 11.1788 16.9639 11.1787Z" stroke="white"/>
</g>
<defs>
<filter id="filter0_d_2_3" x="0" y="0" width="48" height="48" filterUnits="userSpaceOnUse" color-interpolation-filters="sRGB">
<feFlood flood-opacity="0" result="BackgroundImageFix"/>
<feColorMatrix in="SourceAlpha" type="matrix" values="0 0 0 0 0 0 0 0 0 0 0 0 0 0 0 0 0 0 127 0" result="hardAlpha"/>
<feOffset dy="4"/>
<feGaussianBlur stdDeviation="2"/>
<feComposite in2="hardAlpha" operator="out"/>
<feColorMatrix type="matrix" values="0 0 0 0 0 0 0 0 0 0 0 0 0 0 0 0 0 0 0.53 0"/>
<feBlend mode="normal" in2="BackgroundImageFix" result="effect1_dropShadow_2_3"/>
<feBlend mode="normal" in="SourceGraphic" in2="effect1_dropShadow_2_3" result="shape"/>
</filter>
</defs>
</svg>
